<?xml version="1.0" encoding="utf-8"?>
<!-- Generator: Adobe Illustrator 27.1.1, SVG Export Plug-In . SVG Version: 6.00 Build 0)  -->
<svg version="1.1" id="Layer_1" xmlns="http://www.w3.org/2000/svg" xmlns:xlink="http://www.w3.org/1999/xlink" x="0px" y="0px"
	 viewBox="0 0 51.9641 51.9641" style="enable-background:new 0 0 51.9641 51.9641;" xml:space="preserve">
<style type="text/css">
	.st0{fill:#182F3E;}
	.st1{fill:#034EA1;}
	.st2{fill:#AFD135;}
</style>
<circle class="st0" cx="26.034" cy="25.982" r="25.982"/>
<path class="st1" d="M39.5182,31.4828c-3.8345-6.6396-7.6678-13.2797-11.5017-19.9193c-0.3185-0.5514-0.6271-1.1077-0.9574-1.6517
	c-0.4793-0.7898-1.5476-0.7942-2.0423-0.0166c-0.0443,0.069-0.0831,0.1417-0.1245,0.2125
	c-3.0385,5.262-6.0771,10.524-9.1156,15.7866c-1.0825,1.8754-2.1637,3.752-3.248,5.6267c-0.125,0.2175-0.2212,0.4399-0.2144,0.7165
	c-0.0087,0.1472,0.0327,0.3056,0.0973,0.4583c0.1405,0.3339,0.4134,0.5194,0.727,0.6727c2.8845,1.4133,5.7666,2.8309,8.6499,4.2473
	c1.2156,0.5976,2.4335,1.1909,3.6466,1.7934c0.409,0.2033,0.8053,0.2088,1.2082-0.005c0.1632-0.0862,0.3315-0.1638,0.4972-0.2452
	c3.0398-1.4934,6.0795-2.9868,9.1187-4.4802c0.9395-0.462,1.879-0.9235,2.8167-1.3893c0.459-0.2273,0.682-0.6068,0.6789-1.1164
	C39.753,31.9195,39.6433,31.699,39.5182,31.4828z M27.7097,14.5281c2.996,5.1838,5.989,10.3687,8.9806,15.555
	c0.0647,0.1128,0.162,0.2157,0.1596,0.3597c-0.1324-0.0561-0.2661-0.1078-0.3961-0.1688c-0.52-0.2434-1.0375-0.4923-1.5581-0.735
	c-2.6012-1.2137-5.2022-2.428-7.8058-3.6368c-0.1713-0.0801-0.2661-0.1774-0.2366-0.3715c0.0061-0.0406,0.0006-0.082,0.0006-0.1232
	c0-3.9799,0-7.9593,0.0006-11.9391c0-0.1226,0.0074-0.2458,0.0111-0.3691C27.1768,13.5578,27.4331,14.0495,27.7097,14.5281z
	 M15.8414,29.2803c3.0435-5.2755,6.0893-10.5487,9.1353-15.8224c0.0665-0.1152,0.1405-0.2255,0.2113-0.3383
	c0.0043,0.9334,0.0117,1.8667,0.0123,2.8001c0.0013,3.1808-0.0024,6.3611,0.0055,9.542c0.0006,0.2397-0.0665,0.3691-0.292,0.4664
	c-0.5742,0.2476-1.1367,0.5218-1.7029,0.7874c-2.1082,0.9876-4.2153,1.9776-6.3235,2.964c-0.5662,0.2649-1.1373,0.5206-1.706,0.7806
	C15.3695,30.0492,15.6166,29.6703,15.8414,29.2803z M34.4164,33.6372c-2.7151,1.3356-5.432,2.667-8.1458,4.0058
	c-0.1614,0.0794-0.2895,0.0936-0.4572,0.0111c-3.5234-1.738-7.0499-3.4704-10.5751-5.2041
	c-0.0548-0.0271-0.1066-0.061-0.1596-0.0912c0.0986-0.0536,0.1953-0.1128,0.2969-0.1601c1.1521-0.5385,2.3054-1.0738,3.4575-1.6122
	c2.3035-1.0775,4.6077-2.1545,6.9088-3.2381c0.2039-0.0962,0.3771-0.1029,0.5822-0.0061c2.0504,0.9667,4.1032,1.9271,6.156,2.8876
	c1.0868,0.5083,2.1772,1.0091,3.2615,1.5223c0.4158,0.1972,0.8446,0.3684,1.2377,0.6123
	C36.1255,32.7889,35.2728,33.2165,34.4164,33.6372z"/>
<path class="st2" d="M37.6313,32.07c-0.2138,0.0924-0.4232,0.1959-0.6346,0.2945c-0.3931-0.2439-0.8219-0.4153-1.2377-0.6123
	c-1.0843-0.5132-2.1748-1.0141-3.2615-1.5223c-2.0528-0.9605-4.1056-1.921-6.156-2.8876c-0.2052-0.0967-0.3783-0.0899-0.5822,0.0061
	c-2.3011,1.0837-4.6053,2.1606-6.9088,3.2381c-1.1521,0.5385-2.3054,1.0738-3.4575,1.6122
	c-0.1017,0.0474-0.1983,0.1066-0.2969,0.1601c-0.2637-0.1078-0.52-0.2304-0.7818-0.39c0.2927-0.5132,0.5606-1.027,0.8847-1.5088
	c0.5687-0.26,1.1397-0.5157,1.706-0.7806c2.1082-0.9864,4.2153-1.9764,6.3235-2.964c0.5662-0.2655,1.1286-0.5397,1.7029-0.7874
	c0.2255-0.0973,0.2927-0.2267,0.292-0.4664c-0.008-3.1808-0.0043-6.3611-0.0055-9.542c-0.0006-0.9334-0.008-1.8667-0.0123-2.8001
	c0.2698-0.4812,0.5397-0.9617,0.8372-1.4916c0.3087,0.5126,0.5946,0.9802,0.8404,1.4712c-0.004,0.1233-0.0114,0.2466-0.0114,0.3692
	c-0.0006,3.9799-0.0006,7.9593-0.0006,11.9391c0,0.0413,0.0055,0.0825-0.0006,0.1232c-0.0296,0.1941,0.0653,0.2914,0.2366,0.3715
	c2.6036,1.2087,5.2047,2.423,7.8058,3.6368c0.5206,0.2428,1.0381,0.4916,1.5581,0.735c0.13,0.061,0.2637,0.1128,0.3961,0.1688
	c0.0308,0.0253,0.072,0.0438,0.0912,0.0757c0.2508,0.4306,0.496,0.8649,0.7497,1.2931C37.784,31.9387,37.7692,32.0108,37.6313,32.07
	z"/>
</svg>
