<?xml version="1.0" encoding="utf-8"?>
<!-- Generator: Adobe Illustrator 27.1.1, SVG Export Plug-In . SVG Version: 6.00 Build 0)  -->
<svg version="1.1" id="Layer_1" xmlns="http://www.w3.org/2000/svg" xmlns:xlink="http://www.w3.org/1999/xlink" x="0px" y="0px"
	 viewBox="0 0 234.4854 234.4854" style="enable-background:new 0 0 234.4854 234.4854;" xml:space="preserve">
<style type="text/css">
	.st0{fill:#E2E2E2;}
	.st1{fill:#034EA1;}
	.st2{fill:#AFD135;}
</style>
<circle class="st0" cx="117.2427" cy="117.2427" r="117.2427"/>
<path class="st1" d="M190.7391,150.883c-20.9001-36.1893-41.7939-72.3815-62.6905-108.5708
	c-1.736-3.0055-3.4183-6.0375-5.2182-9.0026c-2.6123-4.305-8.4353-4.3287-11.1318-0.0905
	c-0.2416,0.3759-0.4532,0.7726-0.6786,1.1583C94.4583,63.0577,77.8967,91.7388,61.335,120.4227
	c-5.9003,10.222-11.7931,20.4504-17.7032,30.6684c-0.6815,1.1854-1.2055,2.3978-1.1686,3.9055
	c-0.0473,0.8025,0.1782,1.6656,0.5304,2.4981c0.7656,1.8201,2.2531,2.8308,3.9625,3.6668
	c15.7222,7.7031,31.4311,15.4299,47.1464,23.1503c6.6256,3.2574,13.2638,6.4912,19.8762,9.7752
	c2.2295,1.1081,4.3892,1.1381,6.5852-0.0271c0.8896-0.4699,1.8069-0.8931,2.7097-1.3364
	c16.5686-8.1396,33.1366-16.2797,49.7016-24.4193c5.1208-2.5183,10.2416-5.0338,15.3526-7.5723
	c2.5016-1.239,3.7175-3.3076,3.7002-6.0848C192.0184,153.2635,191.4206,152.0614,190.7391,150.883z M126.3761,58.4708
	c16.3299,28.2544,32.643,56.5152,48.9493,84.7829c0.3528,0.6146,0.8833,1.1756,0.87,1.9608
	c-0.7218-0.3056-1.4506-0.5875-2.1591-0.9202c-2.8343-1.3266-5.6547-2.6832-8.4924-4.0064
	c-14.1777-6.6152-28.3547-13.2339-42.5456-19.8225c-0.9334-0.4364-1.4506-0.9669-1.2897-2.0248
	c0.0334-0.2214,0.0035-0.4468,0.0035-0.6717c0-21.6928,0-43.3822,0.0035-65.0745c0-0.6682,0.0404-1.3399,0.0605-2.0115
	C123.4715,53.1822,124.8684,55.8619,126.3761,58.4708z M61.6879,138.8783c16.5887-28.7543,33.1902-57.4959,49.7922-86.2403
	c0.3626-0.6278,0.7656-1.2292,1.1519-1.8438c0.0236,5.0874,0.064,10.1748,0.0669,15.2621c0.0069,17.3371-0.0133,34.6713,0.03,52.009
	c0.0035,1.3064-0.3626,2.0115-1.5918,2.542c-3.1295,1.3497-6.1955,2.8441-9.2817,4.2917
	c-11.491,5.3831-22.9756,10.779-34.4666,16.1552c-3.0862,1.4436-6.1989,2.8377-9.2984,4.2549
	C59.1154,143.0692,60.4622,141.004,61.6879,138.8783z M162.9315,162.6259c-14.7986,7.2799-29.6076,14.5368-44.3992,21.8335
	c-0.8798,0.433-1.578,0.5102-2.4918,0.0605c-19.2045-9.4731-38.4257-18.9156-57.64-28.3651c-0.2986-0.1476-0.5812-0.3327-0.87-0.497
	c0.5373-0.2923,1.0643-0.6146,1.6183-0.8729c6.2797-2.9352,12.5657-5.853,18.8453-8.7876
	c12.5553-5.8732,25.1146-11.7429,37.6566-17.6496c1.1116-0.5241,2.0554-0.561,3.1733-0.0334
	c11.1756,5.269,22.3645,10.504,33.5534,15.7389c5.9234,2.7703,11.8669,5.5002,17.777,8.2975
	c2.2664,1.0747,4.6037,2.0081,6.7461,3.3376C172.2466,158.0021,167.5992,160.3324,162.9315,162.6259z"/>
<path class="st2" d="M180.4542,154.0833c-1.1652,0.5039-2.3067,1.0677-3.4586,1.6051c-2.1424-1.3295-4.4797-2.2635-6.7461-3.3376
	c-5.9101-2.7974-11.8536-5.5273-17.777-8.2975c-11.1889-5.235-22.3778-10.4705-33.5534-15.7389
	c-1.1185-0.527-2.0617-0.4901-3.1733,0.0334c-12.542,5.9066-25.1013,11.7764-37.6566,17.6496
	c-6.2797,2.9352-12.5657,5.853-18.8453,8.7876c-0.5541,0.2583-1.081,0.5811-1.6183,0.8729
	c-1.4373-0.5875-2.8343-1.2557-4.2612-2.1257c1.5953-2.7974,3.0557-5.5976,4.8222-8.2237c3.0995-1.4171,6.2122-2.8106,9.2984-4.2549
	c11.491-5.3762,22.9756-10.7726,34.4666-16.1552c3.0862-1.4471,6.1517-2.9415,9.2817-4.2918
	c1.2292-0.5304,1.5953-1.2355,1.5918-2.542c-0.0438-17.3371-0.0236-34.6713-0.03-52.009
	c-0.0035-5.0874-0.0438-10.1747-0.0669-15.2621c1.4708-2.6227,2.9415-5.2419,4.5633-8.1298
	c1.6823,2.7939,3.2407,5.3428,4.5806,8.0191c-0.0219,0.6722-0.0623,1.3439-0.0623,2.0121
	c-0.0035,21.6928-0.0035,43.3822-0.0035,65.0745c0,0.2249,0.03,0.4497-0.0035,0.6717c-0.1614,1.0579,0.3557,1.5884,1.2897,2.0248
	c14.1909,6.5881,28.3686,13.2068,42.5457,19.8225c2.8377,1.3232,5.6581,2.6797,8.4924,4.0064
	c0.7086,0.3327,1.4373,0.6146,2.1591,0.9202c0.1678,0.1378,0.3926,0.2387,0.497,0.4128c1.367,2.3471,2.7034,4.7144,4.0865,7.0482
	C181.2867,153.3678,181.206,153.7611,180.4542,154.0833z"/>
</svg>
